<?xml version="1.0" encoding="UTF-8" standalone="no"?><!DOCTYPE svg PUBLIC "-//W3C//DTD SVG 1.1//EN" "http://www.w3.org/Graphics/SVG/1.1/DTD/svg11.dtd"><!-- Generated by graphviz version 2.40.1 (20161225.0304)
 --><!-- Title: G Pages: 1 --><svg xmlns="http://www.w3.org/2000/svg" xmlns:xlink="http://www.w3.org/1999/xlink" width="368pt" height="188pt" viewBox="0.00 0.00 368.00 188.00">
<g id="graph0" class="graph" transform="scale(1 1) rotate(0) translate(4 184)">
<title>G</title>
<polygon fill="#ffffff" stroke="transparent" points="-4,4 -4,-184 364,-184 364,4 -4,4"/>
<!-- Mt -->
<g id="node1" class="node">
<title>Mt</title>
<polygon fill="#ff3030" stroke="#000000" points="108,-180 0,-180 0,-144 108,-144 108,-180"/>
<text text-anchor="middle" x="54" y="-157.8" font-family="Times,serif" font-size="14.00" fill="#000000">Matrix</text>
</g>
<!-- &#45;10 -->
<g id="node2" class="node">
<title>-10</title>
<polygon fill="#ffc300" stroke="#000000" points="234,-180 126,-180 126,-144 234,-144 234,-180"/>
<text text-anchor="middle" x="180" y="-157.8" font-family="Times,serif" font-size="14.00" fill="#000000">[(-1,0) Column]</text>
</g>
<!-- Mt&#45;&gt;&#45;10 -->
<g id="edge5" class="edge">
<title>Mt-&gt;-10</title>
<path fill="none" stroke="#000000" d="M108.1406,-162C110.6275,-162 113.1143,-162 115.6011,-162"/>
<polygon fill="#000000" stroke="#000000" points="115.8248,-165.5001 125.8248,-162 115.8247,-158.5001 115.8248,-165.5001"/>
</g>
<!-- 0&#45;1 -->
<g id="node4" class="node">
<title>0-1</title>
<polygon fill="#daf7a6" stroke="#000000" points="108,-108 0,-108 0,-72 108,-72 108,-108"/>
<text text-anchor="middle" x="54" y="-85.8" font-family="Times,serif" font-size="14.00" fill="#000000">[(0,-1) Fila]</text>
</g>
<!-- Mt&#45;&gt;0&#45;1 -->
<g id="edge6" class="edge">
<title>Mt-&gt;0-1</title>
<path fill="none" stroke="#000000" d="M54,-143.8314C54,-136.131 54,-126.9743 54,-118.4166"/>
<polygon fill="#000000" stroke="#000000" points="57.5001,-118.4132 54,-108.4133 50.5001,-118.4133 57.5001,-118.4132"/>
</g>
<!-- &#45;15 -->
<g id="node3" class="node">
<title>-15</title>
<polygon fill="#ffc300" stroke="#000000" points="360,-180 252,-180 252,-144 360,-144 360,-180"/>
<text text-anchor="middle" x="306" y="-157.8" font-family="Times,serif" font-size="14.00" fill="#000000">[(-1,5) Column]</text>
</g>
<!-- &#45;10&#45;&gt;&#45;15 -->
<g id="edge1" class="edge">
<title>-10-&gt;-15</title>
<path fill="none" stroke="#000000" d="M234.1406,-148.767C236.6275,-148.6171 239.1143,-148.5303 241.6011,-148.5067"/>
<polygon fill="#000000" stroke="#000000" points="241.7395,-152.0112 251.8248,-148.7649 241.9164,-145.0134 241.7395,-152.0112"/>
</g>
<!-- 00 -->
<g id="node6" class="node">
<title>00</title>
<polygon fill="#aed6f1" stroke="#000000" points="234,-108 126,-108 126,-72 234,-72 234,-108"/>
<text text-anchor="middle" x="180" y="-85.8" font-family="Times,serif" font-size="14.00" fill="#000000">[(0,0) a]</text>
</g>
<!-- &#45;10&#45;&gt;00 -->
<g id="edge8" class="edge">
<title>-10-&gt;00</title>
<path fill="none" stroke="#000000" d="M174.0476,-143.8314C173.2972,-136.131 173.0763,-126.9743 173.3849,-118.4166"/>
<polygon fill="#000000" stroke="#000000" points="176.8792,-118.6161 174.024,-108.4133 169.8935,-118.1697 176.8792,-118.6161"/>
</g>
<!-- &#45;15&#45;&gt;&#45;10 -->
<g id="edge2" class="edge">
<title>-15-&gt;-10</title>
<path fill="none" stroke="#000000" d="M251.8248,-175.2351C249.3379,-175.3844 246.8511,-175.4706 244.3643,-175.4937"/>
<polygon fill="#000000" stroke="#000000" points="244.2266,-171.9891 234.1406,-175.233 244.0481,-178.9868 244.2266,-171.9891"/>
</g>
<!-- 05 -->
<g id="node8" class="node">
<title>05</title>
<polygon fill="#aed6f1" stroke="#000000" points="360,-108 252,-108 252,-72 360,-72 360,-108"/>
<text text-anchor="middle" x="306" y="-85.8" font-family="Times,serif" font-size="14.00" fill="#000000">[(0,5) b]</text>
</g>
<!-- &#45;15&#45;&gt;05 -->
<g id="edge16" class="edge">
<title>-15-&gt;05</title>
<path fill="none" stroke="#000000" d="M300.0476,-143.8314C299.2972,-136.131 299.0763,-126.9743 299.3849,-118.4166"/>
<polygon fill="#000000" stroke="#000000" points="302.8792,-118.6161 300.024,-108.4133 295.8935,-118.1697 302.8792,-118.6161"/>
</g>
<!-- 6&#45;1 -->
<g id="node5" class="node">
<title>6-1</title>
<polygon fill="#daf7a6" stroke="#000000" points="108,-36 0,-36 0,0 108,0 108,-36"/>
<text text-anchor="middle" x="54" y="-13.8" font-family="Times,serif" font-size="14.00" fill="#000000">[(6,-1) Fila]</text>
</g>
<!-- 0&#45;1&#45;&gt;6&#45;1 -->
<g id="edge4" class="edge">
<title>0-1-&gt;6-1</title>
<path fill="none" stroke="#000000" d="M48.0476,-71.8314C47.2972,-64.131 47.0763,-54.9743 47.3849,-46.4166"/>
<polygon fill="#000000" stroke="#000000" points="50.8792,-46.6161 48.024,-36.4133 43.8935,-46.1697 50.8792,-46.6161"/>
</g>
<!-- 0&#45;1&#45;&gt;00 -->
<g id="edge10" class="edge">
<title>0-1-&gt;00</title>
<path fill="none" stroke="#000000" d="M108.1406,-103.233C110.6275,-103.3829 113.1143,-103.4697 115.6011,-103.4933"/>
<polygon fill="#000000" stroke="#000000" points="115.9164,-106.9866 125.8248,-103.2351 115.7395,-99.9888 115.9164,-106.9866"/>
</g>
<!-- 6&#45;1&#45;&gt;0&#45;1 -->
<g id="edge3" class="edge">
<title>6-1-&gt;0-1</title>
<path fill="none" stroke="#000000" d="M59.976,-36.4133C60.7071,-44.0593 60.9203,-53.1084 60.6155,-61.5726"/>
<polygon fill="#000000" stroke="#000000" points="57.1048,-61.6264 59.9524,-71.8314 64.0902,-62.078 57.1048,-61.6264"/>
</g>
<!-- 60 -->
<g id="node7" class="node">
<title>60</title>
<polygon fill="#aed6f1" stroke="#000000" points="234,-36 126,-36 126,0 234,0 234,-36"/>
<text text-anchor="middle" x="180" y="-13.8" font-family="Times,serif" font-size="14.00" fill="#000000">[(6,0) d]</text>
</g>
<!-- 6&#45;1&#45;&gt;60 -->
<g id="edge14" class="edge">
<title>6-1-&gt;60</title>
<path fill="none" stroke="#000000" d="M108.1406,-31.233C110.6275,-31.3829 113.1143,-31.4697 115.6011,-31.4933"/>
<polygon fill="#000000" stroke="#000000" points="115.9164,-34.9866 125.8248,-31.2351 115.7395,-27.9888 115.9164,-34.9866"/>
</g>
<!-- 00&#45;&gt;&#45;10 -->
<g id="edge7" class="edge">
<title>00-&gt;-10</title>
<path fill="none" stroke="#000000" d="M185.976,-108.4133C186.7071,-116.0593 186.9203,-125.1084 186.6155,-133.5726"/>
<polygon fill="#000000" stroke="#000000" points="183.1048,-133.6264 185.9524,-143.8314 190.0902,-134.078 183.1048,-133.6264"/>
</g>
<!-- 00&#45;&gt;0&#45;1 -->
<g id="edge9" class="edge">
<title>00-&gt;0-1</title>
<path fill="none" stroke="#000000" d="M125.8248,-76.7649C123.3379,-76.6156 120.8511,-76.5294 118.3643,-76.5063"/>
<polygon fill="#000000" stroke="#000000" points="118.0481,-73.0132 108.1406,-76.767 118.2266,-80.0109 118.0481,-73.0132"/>
</g>
<!-- 00&#45;&gt;60 -->
<g id="edge12" class="edge">
<title>00-&gt;60</title>
<path fill="none" stroke="#000000" d="M174.0476,-71.8314C173.2972,-64.131 173.0763,-54.9743 173.3849,-46.4166"/>
<polygon fill="#000000" stroke="#000000" points="176.8792,-46.6161 174.024,-36.4133 169.8935,-46.1697 176.8792,-46.6161"/>
</g>
<!-- 00&#45;&gt;05 -->
<g id="edge18" class="edge">
<title>00-&gt;05</title>
<path fill="none" stroke="#000000" d="M234.1406,-103.233C236.6275,-103.3829 239.1143,-103.4697 241.6011,-103.4933"/>
<polygon fill="#000000" stroke="#000000" points="241.9164,-106.9866 251.8248,-103.2351 241.7395,-99.9888 241.9164,-106.9866"/>
</g>
<!-- 60&#45;&gt;6&#45;1 -->
<g id="edge13" class="edge">
<title>60-&gt;6-1</title>
<path fill="none" stroke="#000000" d="M125.8248,-4.7649C123.3379,-4.6156 120.8511,-4.5294 118.3643,-4.5063"/>
<polygon fill="#000000" stroke="#000000" points="118.0481,-1.0132 108.1406,-4.767 118.2266,-8.0109 118.0481,-1.0132"/>
</g>
<!-- 60&#45;&gt;00 -->
<g id="edge11" class="edge">
<title>60-&gt;00</title>
<path fill="none" stroke="#000000" d="M185.976,-36.4133C186.7071,-44.0593 186.9203,-53.1084 186.6155,-61.5726"/>
<polygon fill="#000000" stroke="#000000" points="183.1048,-61.6264 185.9524,-71.8314 190.0902,-62.078 183.1048,-61.6264"/>
</g>
<!-- 65 -->
<g id="node9" class="node">
<title>65</title>
<polygon fill="#aed6f1" stroke="#000000" points="360,-36 252,-36 252,0 360,0 360,-36"/>
<text text-anchor="middle" x="306" y="-13.8" font-family="Times,serif" font-size="14.00" fill="#000000">[(6,5) c]</text>
</g>
<!-- 60&#45;&gt;65 -->
<g id="edge22" class="edge">
<title>60-&gt;65</title>
<path fill="none" stroke="#000000" d="M234.1406,-31.233C236.6275,-31.3829 239.1143,-31.4697 241.6011,-31.4933"/>
<polygon fill="#000000" stroke="#000000" points="241.9164,-34.9866 251.8248,-31.2351 241.7395,-27.9888 241.9164,-34.9866"/>
</g>
<!-- 05&#45;&gt;&#45;15 -->
<g id="edge15" class="edge">
<title>05-&gt;-15</title>
<path fill="none" stroke="#000000" d="M311.976,-108.4133C312.7071,-116.0593 312.9203,-125.1084 312.6155,-133.5726"/>
<polygon fill="#000000" stroke="#000000" points="309.1048,-133.6264 311.9524,-143.8314 316.0902,-134.078 309.1048,-133.6264"/>
</g>
<!-- 05&#45;&gt;00 -->
<g id="edge17" class="edge">
<title>05-&gt;00</title>
<path fill="none" stroke="#000000" d="M251.8248,-76.7649C249.3379,-76.6156 246.8511,-76.5294 244.3643,-76.5063"/>
<polygon fill="#000000" stroke="#000000" points="244.0481,-73.0132 234.1406,-76.767 244.2266,-80.0109 244.0481,-73.0132"/>
</g>
<!-- 05&#45;&gt;65 -->
<g id="edge20" class="edge">
<title>05-&gt;65</title>
<path fill="none" stroke="#000000" d="M300.0476,-71.8314C299.2972,-64.131 299.0763,-54.9743 299.3849,-46.4166"/>
<polygon fill="#000000" stroke="#000000" points="302.8792,-46.6161 300.024,-36.4133 295.8935,-46.1697 302.8792,-46.6161"/>
</g>
<!-- 65&#45;&gt;60 -->
<g id="edge21" class="edge">
<title>65-&gt;60</title>
<path fill="none" stroke="#000000" d="M251.8248,-4.7649C249.3379,-4.6156 246.8511,-4.5294 244.3643,-4.5063"/>
<polygon fill="#000000" stroke="#000000" points="244.0481,-1.0132 234.1406,-4.767 244.2266,-8.0109 244.0481,-1.0132"/>
</g>
<!-- 65&#45;&gt;05 -->
<g id="edge19" class="edge">
<title>65-&gt;05</title>
<path fill="none" stroke="#000000" d="M311.976,-36.4133C312.7071,-44.0593 312.9203,-53.1084 312.6155,-61.5726"/>
<polygon fill="#000000" stroke="#000000" points="309.1048,-61.6264 311.9524,-71.8314 316.0902,-62.078 309.1048,-61.6264"/>
</g>
</g>
</svg>